<svg width="133" height="135" viewBox="0 0 133 135" fill="none" xmlns="http://www.w3.org/2000/svg">
<g id="Group 427320847">
<g id="Group 427320845">
<path id="Vector" fill-rule="evenodd" clip-rule="evenodd" d="M50.2283 12.6012L49.3237 45.0285L75.8358 61.4122L76.3406 29.1988C60.5377 19.3015 66.7985 22.9925 50.2283 12.6012Z" fill="#644AEE"/>
<path id="Vector 54" d="M88.2922 76.3011L89.2695 24.3984L80.5828 29.2115L80.0412 61.4096L88.2922 76.3011Z" fill="#564991"/>
<g id="Vector 55">
<path d="M52.9962 12.5988L44.7452 -2.29272L89.2696 24.3985L80.5829 29.2116L52.9962 12.5988Z" fill="#302272"/>
<path d="M88.2922 76.3012L43.3542 49.8392L52.0409 45.0261L80.0412 61.4097L88.2922 76.3012Z" fill="#41357D"/>
</g>
<path id="Vector 56" d="M52.9952 12.5985L44.7441 -2.29297L43.3531 49.8389L52.0398 45.0258L52.9952 12.5985Z" fill="#41357D"/>
<path id="Vector_2" fill-rule="evenodd" clip-rule="evenodd" d="M40.9569 61.2756L16.6736 75.4857L40.317 90.3043L64.9919 75.865L40.9569 61.2756Z" fill="#8D5CCF"/>
<path id="Vector 57" d="M43.2043 61.2759L43.7687 49.6096L88.293 76.3009L68.5885 75.8652L43.2043 61.2759Z" fill="#31135A"/>
<path id="Vector 58" d="M42.5289 90.3075L42.3782 101.745L88.2936 76.3039L68.589 75.8682L42.5289 90.3075Z" fill="#572A93"/>
<path id="Vector 59" d="M17.5563 75.4871L-2.1483 75.0514L42.3761 101.743L42.5268 90.3056L17.5563 75.4871Z" fill="#572A93"/>
<path id="Vector 60" d="M43.2052 61.2756L43.7695 49.6094L-2.14582 75.05L17.5588 75.4857L43.2052 61.2756Z" fill="#31135A"/>
<path id="Vector_3" fill-rule="evenodd" clip-rule="evenodd" d="M8.58995 28.8572L32.8732 14.6471L32.2333 43.6757L7.55832 58.115L8.58995 28.8572Z" fill="#644AEE"/>
<path id="Vector 57_2" d="M9.02153 28.8554L-0.755393 22.919L-2.14641 75.0509L7.93198 58.1132L9.02153 28.8554Z" fill="#302272"/>
<path id="Vector 58_2" d="M33.9906 43.6769L43.7676 49.6133L-2.14784 75.0539L7.93055 58.1162L33.9906 43.6769Z" fill="#302272"/>
<path id="Vector 59_2" d="M34.6676 14.6442L44.746 -2.29356L43.7686 49.6091L33.9917 43.6728L34.6676 14.6442Z" fill="#190B5C"/>
<path id="Vector 60_2" d="M9.01911 28.8543L-0.757812 22.918L44.7439 -2.29347L34.6655 14.6442L9.01911 28.8543Z" fill="#190B5C"/>
</g>
<path id="Vector 61" d="M45.1387 -18.7296L103.745 16.3784L102.437 84.6834M45.1387 -18.7296L43.831 49.5754M45.1387 -18.7296L-14.7754 14.4673L-16.6278 83.0741M102.437 84.6834L43.831 49.5754M102.437 84.6834L41.9786 118.182L-16.6278 83.0741M43.831 49.5754L-16.6278 83.0741" stroke="#644AEE" stroke-opacity="0.5" stroke-width="0.831051"/>
</g>
</svg>
